Coordinates
version=1
nRows=13
nColumns=36
inDegrees=yes

Units are S.I. units (second, meters, Newtons, ...)
If the header above contains a line with 'inDegrees', this indicates whether rotational values are in degrees (yes) or radians (no).

endheader
time	pelvis_tilt	pelvis_list	pelvis_rotation	pelvis_tx	pelvis_ty	pelvis_tz	hip_flexion_r	hip_adduction_r	hip_rotation_r	knee_angle_r	knee_angle_r_beta	ankle_angle_r	subtalar_angle_r	mtp_angle_r	hip_flexion_l	hip_adduction_l	hip_rotation_l	knee_angle_l	knee_angle_l_beta	ankle_angle_l	subtalar_angle_l	mtp_angle_l	lumbar_extension	lumbar_bending	lumbar_rotation	arm_flex_r	arm_add_r	arm_rot_r	elbow_flex_r	pro_sup_r	arm_flex_l	arm_add_l	arm_rot_l	elbow_flex_l	pro_sup_l
      3.71666670	     -5.83848784	     -0.14108556	      7.26653210	      0.72944687	      0.85366200	     -0.30726188	     37.60674587	     -4.40681542	      4.37002119	     55.94857930	      0.97648692	     30.28614719	     -4.65355393	     -7.49999987	     34.01901037	     -2.72786770	     -8.59639505	     53.73597111	      0.93786962	     24.62187426	    -13.96807582	     -7.49999987	    -11.67959338	     -4.18054348	      6.59392018	     12.12023607	    -12.99601297	     18.85635508	     44.71446200	     86.24226760	      8.99558885	    -11.37667911	     15.01687243	     57.05374439	     83.42167753
      3.73333330	     -6.24383684	     -0.17747753	      6.97576529	      0.73007736	      0.86040081	     -0.30779708	     37.21018502	     -4.24195817	      4.60276641	     54.32587253	      0.94816534	     29.75742188	     -4.53640574	     -7.49999987	     33.34210744	     -2.35812197	     -8.33682208	     51.71725800	      0.90263643	     24.13095115	    -13.77413278	     -7.49999987	    -10.61763259	     -4.09013701	      6.45496651	     11.30089111	    -13.05780278	     18.87858891	     44.50872262	     86.22263270	      7.95759296	    -11.71726652	     15.00901807	     56.40302039	     83.43155825
      3.75000000	     -6.16936702	      0.02477424	      6.60229244	      0.73373733	      0.86326684	     -0.30449134	     35.98589902	     -4.02389618	      5.20010328	     52.27363381	      0.91234702	     28.74094817	     -4.86862913	     -7.49999987	     31.93735936	     -1.98973428	     -8.11762871	     49.48134006	      0.86361230	     22.40148946	    -14.81407725	     -7.49999987	     -9.67741820	     -4.28227795	      6.22436703	     10.93937329	    -12.50474950	     18.79724099	     42.47977038	     86.53276533	      7.32574762	    -11.71593966	     14.63401730	     52.53100719	     84.02258885
      3.76666670	     -6.55956012	     -0.21450813	      6.20015826	      0.73395149	      0.87167096	     -0.30485242	     35.20931995	     -3.69821803	      5.15423789	     49.85907899	      0.87020509	     27.68480438	     -4.09045104	     -7.49999987	     31.32253204	     -2.27172664	     -8.33436073	     47.64111708	      0.83149435	     21.32182981	    -14.37794068	     -7.49999987	     -8.35469311	     -4.04986376	      6.05138773	     10.21216162	    -12.37902849	     18.72328642	     42.30196644	     86.49158047	      5.85140908	    -12.19078428	     14.60769819	     51.18124529	     84.03878257
      3.78333330	     -6.63491184	     -0.52775028	      6.07358490	      0.73729348	      0.87893442	     -0.30921909	     33.60475857	     -3.51010717	      4.95769360	     46.85503834	      0.81777469	     26.29058914	     -3.89318780	     -7.49999987	     29.77412335	     -2.39507866	     -8.62835771	     44.70750981	      0.78029325	     20.54558753	    -13.39970087	     -7.49999987	     -7.04965335	     -3.51062042	      5.79960380	      9.71273542	    -12.08654018	     18.46010890	     40.86931515	     86.31084308	      5.00162848	    -11.74481629	     14.30141735	     47.05712184	     84.02360750
      3.80000000	     -6.34205842	     -0.96543177	      6.08680383	      0.73719505	      0.89581275	     -0.31100056	     31.22422116	     -3.29311233	      4.34913012	     42.88404978	      0.74846787	     24.55890494	     -3.17766721	     -7.49999987	     27.82115353	     -2.54081424	     -8.65739785	     41.57211204	      0.72557023	     19.07970474	    -12.32276106	     -7.49999987	     -6.37524913	     -2.72191399	      5.48184169	      9.23556620	    -11.88790746	     18.28692957	     39.50114958	     86.08996233	      4.20659782	    -11.51889339	     14.73258666	     43.95039293	     84.22564994
      3.81666670	     -5.70809148	     -1.33173245	      6.39621204	      0.73664224	      0.90655902	     -0.31181374	     28.65366838	     -3.14752146	      3.76119336	     39.22005236	      0.68451905	     22.76641571	     -3.04328120	     -7.49999987	     25.38805508	     -2.48787740	     -8.03131766	     38.20401712	      0.66678589	     17.56449923	    -11.67452638	     -7.49999987	     -6.06252228	     -1.88648044	      4.68806652	      8.75109326	    -11.72516205	     17.91562350	     38.50570957	     85.90219946	      3.46506212	    -11.46397892	     15.07639924	     40.94237993	     84.26406809
      3.83333330	     -5.25593936	     -1.14780653	      6.60198236	      0.74632707	      0.90992775	     -0.31928926	     26.05687542	     -3.78790465	      3.28108129	     35.97009723	      0.62779663	     21.04292942	     -2.67198705	     -7.49999987	     22.10434570	     -1.54233825	     -7.37181607	     33.51613497	      0.58496691	     16.70743693	    -10.16422155	     -7.49999987	     -5.17003392	     -1.64069046	      3.92018580	      7.78208627	    -11.62448728	     17.63614301	     37.19200308	     85.70714846	      2.30197687	    -11.30408691	     15.35571020	     37.43570653	     84.21466576
      3.85000000	     -5.25172310	     -1.31267249	      7.04583127	      0.74191969	      0.91378880	     -0.31584984	     24.57422736	     -3.85706266	      2.86411860	     33.33562819	      0.58181647	     19.96924096	     -2.49085911	     -7.49999987	     20.08640022	     -1.00661968	     -6.49979977	     29.69839904	      0.51833485	     15.97879465	     -9.93121075	     -7.49999987	     -4.32525137	     -1.30088668	      3.12552131	      6.99362100	    -11.64625383	     17.17647290	     36.42520601	     85.48581481	      1.69432331	    -11.30369827	     15.78536125	     34.79694664	     84.13970371
      3.86666670	     -5.28162247	     -1.75951867	      7.79932467	      0.74667159	      0.92185838	     -0.32140059	     22.19321772	     -3.99357304	      1.63717455	     29.34119606	      0.51210048	     18.48047901	     -1.83899151	     -7.49999987	     18.33012643	     -0.77013760	     -5.44956775	     26.18511487	      0.45701647	     14.57381754	     -9.73167026	     -7.49999987	     -3.24637027	     -0.54980465	      2.18891223	      6.10615539	    -11.80110598	     16.60595811	     35.70444241	     85.24391068	      1.02505690	    -11.25408167	     16.27437618	     32.56203507	     84.03876833
      3.88333330	     -4.90688842	     -2.02595610	      8.47712444	      0.75417034	      0.93734925	     -0.32252468	     18.60634441	     -3.94441659	      0.61344797	     24.07341233	      0.42016031	     16.60051664	     -0.96759761	     -7.49999987	     15.83336787	     -0.64908235	     -4.95962798	     22.56745461	      0.39387639	     12.53147682	     -9.48489173	     -7.49999987	     -2.32754752	     -0.04892721	      2.23491533	      4.28070444	    -11.88334468	     14.53141006	     35.69369811	     84.56117318	      1.06964949	    -11.28996493	     19.02223165	     29.80822693	     82.69634121
      3.90000000	     -4.78806124	     -2.38298318	      9.06763333	      0.75048763	      0.94251384	     -0.32110385	     16.09307350	     -3.54954991	     -0.13158197	     19.66602241	      0.34323684	     14.65555377	     -0.49412651	     -7.49999987	     14.36441063	     -0.69132038	     -4.57341912	     19.73080893	      0.34436758	     10.82429809	     -9.60362542	     -7.49999987	     -1.56598562	      0.42921400	      1.45190538	      3.32466103	    -12.03156777	     14.15954537	     35.78248030	     84.46369297	      0.24395892	    -11.35432830	     19.00148946	     28.73368687	     82.43216074
      3.91666670	     -4.73022638	     -2.48517906	      9.39142806	      0.75374771	      0.94833907	     -0.31826451	     13.93908617	     -3.22096758	     -0.49004887	     15.76886497	      0.27521861	     12.64879393	     -0.02071279	     -7.49999987	     12.64495362	     -0.60595399	     -4.59798602	     16.40318184	      0.28628953	      9.12086778	     -9.28145716	     -7.49999987	     -0.88636372	      0.47893564	      1.00840974	      2.38687348	    -11.98707859	     13.62761892	     35.95336340	     84.36572866	     -0.65347940	    -11.57221017	     18.65100154	     27.68595433	     82.13583837
